PathFileType	4	(X/Y/Z)	walk-thru1-3-TP.trc
DataRate	CameraRate	NumFrames	NumMarkers	Units	OrigDataRate	OrigDataStartFrame	OrigNumFrames
120.00	120.00	       5	60	mm	120.00	67	       528
Frame#	Time	Top.Head			Front.Head			Rear.Head			Jaw			C7			R.Clavicle			L.Clavicle			R.Shoulder			L.Shoulder			R.Scapula			L.Scapula			R.Scap.Inf			R.Biceps.Lateral			R.Elbow			R.Elbow.Medial			R.Forearm			R.Ulna			R.Radius			R.Wrist			R.Thumb.M1			R.Thumb.M2			R.Thumb.M3			R.Finger3.M1			R.Finger3.M2			R.Finger3.M3			L.Biceps.Lateral			L.Elbow			L.Elbow.Medial			L.Forearm			L.Ulna			L.Radius			L.Wrist			L.Thumb.M1			L.Thumb.M2			L.Thumb.M3			L.Finger3.M1			L.Finger3.M2			L.Finger3.M3			V.Sacral			R.ASIS			L.ASIS			R.Thigh			R.Thigh.Front			R.Knee			R.Knee.Medial			R.Shank			R.Ankle			R.Ankle.Medial			R.Heel			R.Toe			R.MedFoot			L.Thigh			L.Knee			L.Knee.Medial			L.Shank			L.Ankle			L.Ankle.Medial			L.Heel			L.Toe			L.MedFoot			V_mid_ASIS			V_R_Knee_JC			V_L_Knee_JC			V_R_Elbow_JC			V_L_Elbow_JC			V_R_Ankle_JC			V_L_Ankle_JC			V_R_Wrist_JC			V_L_Wrist_JC			V_R_ScaTrpz_1stMC_JC			V_R_1stMC_1stPP_JC			V_R_1stPP_1stDP_JC			V_R_LunCap_3rdMC_JC			V_R_3rdMC_3rdPP_JC			V_R_3rdPP_3rdMP_JC			V_R_3rdMP_3rdDP_JC			V_L_ScaTrpz_1stMC_JC			V_L_1stMC_1stPP_JC			V_L_1stPP_1stDP_JC			V_L_LunCap_3rdMC_JC			V_L_3rdMC_3rdPP_JC			V_L_3rdPP_3rdMP_JC			V_L_3rdMP_3rdPP_JC			V_ROOT_JC			V_R_Hip_JC			V_L_Hip_JC			V_R_GlenHum_JC			V_L_GlenHum_JC			V_ForeHead_Ctr			V_Vertex			V_Sagit_Lambdoid_Suture			V_R_FrontoTemp			V_L_FrontoTemporal			V_R_ParietalOccip			V_L_ParietalOcciptal			V_R_Temporal			V_L_Temporal			V_mid_FrontRearHead			V_mid_RLGlenHumCtrs			V_C7_vert			V_C1_vert			V_Mid_Hip			
		X1	Y1	Z1	X2	Y2	Z2	X3	Y3	Z3	X4	Y4	Z4	X5	Y5	Z5	X6	Y6	Z6	X7	Y7	Z7	X8	Y8	Z8	X9	Y9	Z9	X10	Y10	Z10	X11	Y11	Z11	X12	Y12	Z12	X13	Y13	Z13	X14	Y14	Z14	X15	Y15	Z15	X16	Y16	Z16	X17	Y17	Z17	X18	Y18	Z18	X19	Y19	Z19	X20	Y20	Z20	X21	Y21	Z21	X22	Y22	Z22	X23	Y23	Z23	X24	Y24	Z24	X25	Y25	Z25	X26	Y26	Z26	X27	Y27	Z27	X28	Y28	Z28	X29	Y29	Z29	X30	Y30	Z30	X31	Y31	Z31	X32	Y32	Z32	X33	Y33	Z33	X34	Y34	Z34	X35	Y35	Z35	X36	Y36	Z36	X37	Y37	Z37	X38	Y38	Z38	X39	Y39	Z39	X40	Y40	Z40	X41	Y41	Z41	X42	Y42	Z42	X43	Y43	Z43	X44	Y44	Z44	X45	Y45	Z45	X46	Y46	Z46	X47	Y47	Z47	X48	Y48	Z48	X49	Y49	Z49	X50	Y50	Z50	X51	Y51	Z51	X52	Y52	Z52	X53	Y53	Z53	X54	Y54	Z54	X55	Y55	Z55	X56	Y56	Z56	X57	Y57	Z57	X58	Y58	Z58	X59	Y59	Z59	X60	Y60	Z60	

67	0.550	1272.56958	-70.05356	1563.62146	1172.08350	-59.55766	1462.64099	1385.53271	-71.06510	1482.55994	1202.39282	-46.17575	1322.64758	1403.14258	-56.03453	1372.01990	1329.08630	61.50067	1284.67627	1296.69885	-150.83698	1291.70825	1384.93103	133.67516	1280.95337	1337.23999	-249.58459	1291.16357	1457.89868	26.63347	1297.69250	1442.22937	-155.92632	1295.68066	1503.89795	4.01364	1216.18896	1378.87268	186.64243	1137.95813	1428.63953	200.85126	980.75641	1453.74744	128.21130	969.33112	1363.34106	199.08090	896.62292	1406.37170	223.71239	817.30127	1346.22522	185.81769	760.36127	1357.26892	224.68066	727.21942	1329.63452	188.82655	706.13245	1323.88513	172.39931	668.88129	1322.47595	161.82712	628.08990	1353.68933	239.15015	649.67188	1361.01807	216.00789	599.63745	1380.23523	190.82860	571.01990	1339.82837	-311.40707	1143.13403	1376.76331	-326.12610	997.44244	1404.40100	-250.87605	986.39386	1287.96301	-302.18198	940.22424	1288.65393	-338.88663	848.85419	1239.54089	-276.75201	811.14960	1223.19189	-324.73248	786.17926	1206.38367	-278.75809	778.24286	1195.93835	-253.45514	743.03418	1189.25525	-243.23172	692.76849	1191.15442	-318.12643	703.33051	1185.02136	-308.64645	663.99042	1193.07715	-284.02509	624.34692	1514.24609	-50.87764	908.24298	1324.63708	101.25257	967.34454	1326.73010	-214.32861	952.52075	1251.17200	145.18552	594.13403	1154.73193	78.87450	522.25946	1196.64868	117.30544	457.68652	1181.90051	2.86873	456.24652	1223.67126	70.36886	285.45532	1339.83008	79.01431	90.09167	1304.77856	-6.63038	101.91427	1390.88403	13.76948	66.99329	1205.71912	81.39037	51.65820	1242.83899	30.04543	77.39345	1364.33948	-226.53020	575.59552	1362.60828	-192.50473	438.44241	1347.79285	-74.02051	423.22498	1384.77930	-130.54845	244.37958	1477.44299	-149.01440	65.09193	1464.68958	-58.76731	83.46143	1538.10925	-100.97369	44.18451	1331.85107	-109.53581	36.49525	1390.67688	-77.53613	60.16753																																																																																																																															
68	0.558	1267.12598	-69.47534	1562.96851	1166.91382	-58.77712	1461.68274	1380.34216	-71.24229	1482.65393	1198.10437	-44.94036	1322.43689	1397.93604	-54.95611	1371.81519	1323.94250	61.67764	1283.72961	1291.95691	-150.20631	1291.38391	1380.27869	133.97282	1280.71667	1332.79663	-248.05498	1290.94531	1452.80615	26.41891	1297.07324	1437.15283	-156.29604	1294.51965	1499.06738	5.16178	1215.45081	1374.90405	186.77281	1137.33386	1424.27393	200.34059	980.71643	1449.39197	127.91988	969.26929	1359.46558	200.57814	896.27234	1403.07617	223.06418	816.67645	1343.60876	186.29230	758.94305	1355.69714	224.44615	726.89886	1327.70483	187.88965	703.93982	1321.40063	173.69084	666.89459	1320.27185	164.37328	626.38287	1352.84863	239.61739	648.60236	1360.77625	216.69749	599.05432	1378.87805	193.29037	569.44727	1334.54077	-310.56754	1143.77563	1371.06445	-327.58054	997.66364	1400.74927	-250.79538	986.49677	1283.82141	-302.42480	938.91949	1283.70056	-337.53186	847.44373	1234.29541	-275.50366	810.57690	1218.63721	-322.71042	785.64575	1203.03381	-277.32053	777.62360	1191.65796	-251.77710	742.22052	1185.69104	-241.61598	691.38568	1186.69507	-316.01532	702.92096	1182.08655	-307.73685	663.51697	1189.61951	-282.60083	623.81000	1509.46582	-50.11440	907.80707	1319.41431	100.55910	967.35242	1322.51929	-214.20659	952.31445	1245.88965	146.86064	594.44159	1148.79492	78.00589	522.36407	1188.78479	117.04100	458.71722	1176.51697	3.54990	455.83051	1213.08606	72.63297	286.01627	1321.42969	82.67636	86.48734	1287.54407	-4.68592	99.29008	1371.86865	16.88708	62.24979	1185.65283	82.32023	51.93352	1225.05078	30.26320	76.56648	1360.95435	-225.29152	574.80151	1360.35046	-192.86177	437.50476	1346.15820	-72.56258	423.23627	1384.22168	-130.65398	244.09628	1477.44604	-148.90466	65.40649	1464.62842	-58.73942	83.69416	1538.10925	-100.97369	44.18451	1331.66370	-109.49849	36.53131	1390.25916	-78.32874	60.70715																																																																																																																															
69	0.567	1262.15662	-68.33776	1562.45374	1161.87915	-58.31358	1460.64905	1375.79443	-70.25287	1481.95813	1193.46472	-44.33478	1321.25977	1394.60449	-54.85256	1370.76331	1318.50977	62.85644	1283.00500	1286.35217	-150.48239	1290.82104	1375.39661	134.04596	1279.44214	1326.97534	-248.75621	1290.83130	1447.58887	27.46232	1296.49487	1432.13049	-154.99222	1293.86963	1494.76575	5.30034	1214.64417	1370.04578	187.13734	1137.03479	1420.39465	199.72961	979.09998	1445.24744	127.67536	968.49554	1356.06116	201.31148	895.39142	1400.61597	223.11571	815.75513	1340.98682	186.10045	757.27191	1353.03198	225.44243	725.94751	1325.55286	188.22522	700.46277	1321.18750	174.34509	665.36096	1320.40637	164.36842	624.36823	1349.91028	240.54282	648.15643	1361.18945	218.32159	598.87860	1378.75769	195.11049	569.05823	1329.69983	-309.45111	1143.62598	1366.28345	-326.70212	997.46613	1395.67920	-250.96660	987.27905	1279.83533	-301.19943	938.62598	1279.16357	-337.95822	847.93884	1231.57471	-274.42017	809.54950	1214.76636	-322.33099	785.62347	1198.82617	-276.31900	776.32904	1189.03430	-250.29445	741.36035	1182.49109	-239.51784	690.58899	1182.65015	-314.85953	703.19849	1177.34802	-306.51666	663.36908	1184.93481	-281.69327	623.84332	1504.65063	-49.20599	907.73676	1313.57483	102.04899	967.17029	1317.16821	-214.07631	951.36481	1240.10144	145.40208	593.18878	1143.81799	78.10529	522.68024	1183.35693	117.44482	458.65842	1170.41821	1.86312	456.26218	1200.83582	73.23048	286.28436	1302.24719	83.07289	82.70730	1270.84705	-2.08723	96.46844	1353.65466	18.83011	57.14605	1167.23962	83.22222	51.61097	1206.69067	31.72592	75.49722	1358.88208	-225.82050	574.68146	1357.16431	-191.79158	437.31293	1344.25146	-72.81375	423.02621	1383.52222	-130.20052	243.28354	1477.85413	-148.66573	65.85919	1464.48389	-58.69900	83.79502	1538.10925	-100.97369	44.18451	1331.85107	-109.53581	36.49525	1390.30334	-78.14186	60.04963																																																																																																																															
70	0.575	1257.14453	-68.39189	1561.24377	1157.62952	-57.91548	1460.19336	1370.22363	-69.76401	1481.58752	1189.26526	-45.09577	1320.03625	1388.54614	-53.75681	1370.52576	1314.25354	63.09654	1282.48157	1282.09326	-149.54868	1290.03479	1371.38806	134.56454	1278.64783	1322.84399	-247.38979	1290.58508	1443.48730	27.84308	1295.78223	1426.65601	-155.22064	1294.06726	1489.75891	5.59112	1213.89954	1366.49463	188.39801	1135.60742	1416.58643	201.02695	978.60107	1440.63904	127.63804	967.71503	1352.85779	200.30859	894.15167	1397.39526	224.33322	815.37628	1338.64270	186.35555	756.65009	1351.66467	225.44006	724.19409	1323.57629	189.41281	700.59802	1319.64063	174.23981	665.10095	1320.01953	164.36342	622.31842	1348.79785	241.12607	647.14563	1357.97449	219.20204	598.40491	1378.08862	197.77495	569.13129	1325.23315	-309.76563	1142.93298	1362.35571	-324.35742	997.23914	1392.22546	-250.15334	987.20184	1275.44751	-299.12582	937.92273	1275.08191	-336.30774	846.76337	1227.29065	-273.14746	808.66431	1210.36438	-319.94778	785.06610	1195.17395	-275.01300	775.97656	1185.53711	-249.37871	739.95007	1178.88367	-238.02786	689.95703	1176.69153	-315.04880	702.21124	1171.48218	-307.35815	663.39276	1179.54846	-282.09937	623.20947	1499.86414	-48.65568	907.21021	1307.96521	102.92447	965.66650	1312.98181	-212.05931	951.00208	1234.72302	147.49188	592.40021	1138.06299	76.75542	523.00378	1176.50256	117.68934	458.82529	1165.66882	3.14083	456.12286	1189.67554	73.71774	286.31638	1285.86584	84.98393	79.62514	1254.15039	-2.44441	94.67582	1336.20703	21.14374	53.26363	1148.00488	82.21120	51.70473	1189.18323	32.11431	74.21320	1355.12024	-224.95425	574.02875	1355.89539	-191.60869	436.60104	1342.10669	-73.26602	421.99255	1382.56372	-129.99551	243.33771	1476.94678	-149.74908	65.74553	1464.31262	-58.11279	84.11942	1537.47290	-101.00503	44.65001	1331.09253	-109.52170	36.07580	1390.38086	-78.24265	60.10651																																																																																																																															
71	0.583	1252.74939	-68.20627	1561.31335	1153.02576	-56.94006	1459.81128	1366.88647	-68.36981	1480.38452	1184.37732	-43.82482	1319.58130	1384.13660	-53.16795	1369.54871	1309.89111	65.07758	1282.14636	1277.00647	-148.53957	1289.32300	1367.74426	135.07759	1278.54236	1317.65698	-246.45056	1290.09521	1438.96765	28.63523	1294.30652	1421.92212	-153.80399	1293.16565	1484.73169	7.15255	1213.60999	1362.07275	189.76830	1134.41565	1412.50122	201.54924	978.34528	1436.48376	127.71680	967.65283	1348.45984	199.97336	893.08264	1394.83655	225.60112	814.37396	1335.67761	185.64648	755.60858	1348.52466	227.01187	723.89551	1321.22632	189.97809	699.49890	1317.58716	172.23976	663.26520	1317.73328	165.07384	621.75623	1346.83704	241.43031	645.98676	1356.81738	221.81937	596.84467	1376.42004	199.55991	567.33350	1320.77637	-310.06607	1142.78430	1357.06982	-323.79489	996.07959	1386.94043	-249.96404	987.05707	1271.09497	-297.48792	937.65192	1270.37402	-335.96817	846.83490	1222.78308	-272.57471	808.76105	1205.88342	-319.60254	784.44806	1191.23157	-273.67957	775.01904	1181.90454	-248.46443	738.61017	1174.32434	-237.88965	689.08960	1172.64465	-313.94571	701.27173	1166.97803	-306.31924	663.08185	1174.28467	-280.59726	622.89026	1494.27551	-48.17645	906.99530	1303.15198	102.58680	965.29077	1308.40564	-212.26668	950.73633	1228.81873	146.72450	592.05170	1132.68970	77.65435	522.95734	1170.49487	117.48003	459.25217	1161.13171	3.78727	456.11771	1178.38623	73.14630	286.72162	1268.11963	86.19524	77.09164	1238.50830	-0.23399	93.10223	1319.39380	23.43783	49.07732	1130.10535	81.93960	51.60675	1172.29492	31.80812	73.59569	1351.82800	-225.03357	573.80389	1353.00806	-191.55612	436.44427	1339.90918	-72.05154	421.17444	1381.47485	-130.10059	242.84201	1477.87097	-148.65436	65.89137	1464.86707	-57.14233	84.15691	1537.50403	-100.63520	45.27924	1332.34851	-109.14610	36.08783	1390.35181	-78.10104	59.71640																																																																																																																															
